<svg width="24" height="25" viewBox="0 0 24 25" fill="none" xmlns="http://www.w3.org/2000/svg">
<g clip-path="url(#clip0_602_241)">
<path d="M22.9828 9.20542H18.0038L15.2108 2.81012C15.0554 2.45429 14.6409 2.29168 14.285 2.44717C13.9292 2.60256 13.7666 3.01707 13.9221 3.37295L16.4693 9.20546H7.53077L10.078 3.37295C10.2334 3.01707 10.0709 2.6026 9.71501 2.44717C9.35918 2.29168 8.94462 2.4542 8.78927 2.81012L5.99627 9.20542H1.01726C0.36593 9.20542 -0.117445 9.79506 0.0250551 10.4157L2.64701 21.8359C2.75112 22.2894 3.16334 22.6117 3.63921 22.6117H20.3608C20.8367 22.6117 21.2489 22.2894 21.353 21.8359L23.975 10.4157C24.1175 9.7951 23.6341 9.20542 22.9828 9.20542ZM6.12856 11.3619C6.03462 11.3619 5.93913 11.3429 5.84749 11.3029C5.49162 11.1475 5.3291 10.733 5.48454 10.3771L6.01273 9.16763H7.54723L6.77323 10.9399C6.65787 11.2042 6.39959 11.3619 6.12856 11.3619ZM8.4844 18.8617C8.4844 19.25 8.16959 19.5648 7.78127 19.5648C7.39296 19.5648 7.07815 19.25 7.07815 18.8617V13.7054C7.07815 13.3171 7.39296 13.0023 7.78127 13.0023C8.16959 13.0023 8.4844 13.3171 8.4844 13.7054V18.8617ZM12.7031 18.8617C12.7031 19.25 12.3883 19.5648 12 19.5648C11.6117 19.5648 11.2969 19.25 11.2969 18.8617V13.7054C11.2969 13.3171 11.6117 13.0023 12 13.0023C12.3883 13.0023 12.7031 13.3171 12.7031 13.7054V18.8617ZM16.9219 18.8617C16.9219 19.25 16.6071 19.5648 16.2188 19.5648C15.8305 19.5648 15.5156 19.25 15.5156 18.8617V13.7054C15.5156 13.3171 15.8305 13.0023 16.2188 13.0023C16.6071 13.0023 16.9219 13.3171 16.9219 13.7054V18.8617ZM18.1525 11.3029C18.0609 11.3429 17.9654 11.3619 17.8715 11.3619C17.6005 11.3619 17.3422 11.2043 17.2268 10.9399L16.4528 9.16768H17.9873L18.5155 10.3772C18.6709 10.733 18.5084 11.1475 18.1525 11.3029Z" fill="#846951"/>
</g>
<defs>
<clipPath id="clip0_602_241">
<rect width="24" height="24" fill="white" transform="translate(0 0.5)"/>
</clipPath>
</defs>
</svg>
