<svg width="49" height="49" viewBox="0 0 49 49" fill="none" xmlns="http://www.w3.org/2000/svg">
<g clip-path="url(#clip0_599_1866)">
<path d="M33.6005 3.3689H5.83828C2.84484 3.3689 0.410156 5.80358 0.410156 8.79702V33.1251C0.410156 34.2773 1.71319 34.9268 2.63297 34.2698L10.3645 28.7536C11.0133 28.2914 11.7764 28.0467 12.5733 28.0467H29.5786C32.572 28.0467 35.0067 25.612 35.0067 22.6186V4.77515C35.0067 3.9989 34.3767 3.3689 33.6005 3.3689ZM26.7698 20.4042H10.522C9.74578 20.4042 9.11578 19.7751 9.11578 18.998C9.11578 18.2217 9.74578 17.5917 10.522 17.5917H26.7698C27.5461 17.5917 28.1761 18.2217 28.1761 18.998C28.1761 19.7751 27.5461 20.4042 26.7698 20.4042ZM26.7698 13.8417H10.522C9.74578 13.8417 9.11578 13.2126 9.11578 12.4355C9.11578 11.6592 9.74578 11.0292 10.522 11.0292H26.7698C27.5461 11.0292 28.1761 11.6592 28.1761 12.4355C28.1761 13.2126 27.5461 13.8417 26.7698 13.8417Z" fill="#846951"/>
<path d="M48.41 19.7048V44.032C48.41 45.1764 47.1136 45.8384 46.1872 45.1767L38.4557 39.6614C37.8069 39.1992 37.0438 38.9545 36.2469 38.9545H19.2416C16.2482 38.9545 13.8135 36.5189 13.8135 33.5254V30.8592H29.5785C34.1225 30.8592 37.8191 27.1626 37.8191 22.6186V14.2758H42.9819C45.9754 14.2758 48.41 16.7114 48.41 19.7048Z" fill="#846951"/>
</g>
<defs>
<clipPath id="clip0_599_1866">
<rect width="48" height="48" fill="white" transform="translate(0.410156 0.404297)"/>
</clipPath>
</defs>
</svg>
