<svg width="45" height="46" viewBox="0 0 45 46" fill="none" xmlns="http://www.w3.org/2000/svg">
<path d="M10.7412 23.8246C10.6722 26.2852 11.3297 28.6754 12.7129 30.746C14.8769 33.9849 18.4619 35.9329 22.339 36.0143C22.877 36.0239 23.404 36.0298 23.9063 36.0298C25.5017 36.0298 27.0583 35.9779 28.5851 35.9017C26.1351 34.1281 24.2603 31.6167 23.2959 28.6524C22.6796 26.7573 22.4654 24.8083 22.6353 22.8585C19.028 22.9104 14.6682 23.1847 10.7412 23.8246Z" fill="#EB6034"/>
<path d="M37.0898 23.8552C33.6494 23.278 29.5944 22.9316 25.2991 22.8691C25.1209 24.5487 25.2785 26.2213 25.8041 27.8377C27.0044 31.5298 29.9223 34.3756 33.6267 35.5041C34.8404 35.3681 35.9919 35.2051 37.0898 35.0207V23.8552Z" fill="#EB6034"/>
<path d="M39.7266 24.3688V34.5071C41.4799 34.1099 43.0201 33.6522 44.2121 33.128L45 32.7816V26.0947L44.2121 25.7482C43.0201 25.2236 41.4799 24.766 39.7266 24.3688Z" fill="#EB6034"/>
<path d="M10.5204 32.2099C8.93497 29.8362 8.14362 27.1257 8.11409 24.3341C3.59528 25.3431 0 26.9513 0 29.4379C0 32.8506 6.59454 34.6156 13.4967 35.431C12.3675 34.5188 11.3506 33.4524 10.5204 32.2099Z" fill="#EB6034"/>
<path d="M41.0449 12.2993H37.0898C37.0898 10.8429 35.9095 9.6626 34.4531 9.6626H23.9062C22.4499 9.6626 21.2695 10.8429 21.2695 12.2993C21.2695 13.7557 22.4499 14.936 23.9062 14.936H29.1797C29.1797 16.3924 30.36 17.5728 31.8164 17.5728H45V16.2544C45 14.0702 43.2291 12.2993 41.0449 12.2993Z" fill="#EB6034"/>
</svg>
