<svg width="45" height="46" viewBox="0 0 45 46" fill="none" xmlns="http://www.w3.org/2000/svg">
<g clip-path="url(#clip0_770_2739)">
<path d="M32.7282 8.8891C31.7006 9.917 31.7006 11.59 32.7282 12.6179C33.7561 13.6455 35.4291 13.6455 36.457 12.6179C37.4849 11.59 37.4849 9.917 36.457 8.8891C35.4291 7.86119 33.7561 7.86119 32.7282 8.8891Z" fill="#EB6034"/>
<path d="M24.8804 4.43002C24.3863 8.76412 25.8348 13.182 28.9995 16.3468C32.1646 19.5118 36.5818 20.9603 40.9159 20.4666C45.3221 12.814 46.3991 5.77962 42.9827 2.36356C39.5667 -1.0525 32.5334 0.024157 24.8804 4.43002ZM38.3218 14.4825C36.2653 16.539 32.9206 16.539 30.8641 14.4825C28.8073 12.4257 28.8073 9.08101 30.8641 7.02451C32.9206 4.968 36.2653 4.968 38.3218 7.02451C40.3783 9.08101 40.3783 12.4257 38.3218 14.4825Z" fill="#EB6034"/>
<path d="M20.6093 21.008C19.5817 22.0356 19.5817 23.7089 20.6093 24.7368C21.6372 25.7644 23.3106 25.7644 24.3385 24.7368C25.366 23.7089 25.366 22.0356 24.3385 21.008C23.3106 19.9801 21.6372 19.9801 20.6093 21.008Z" fill="#EB6034"/>
<path d="M12.2717 36.8032C13.2996 35.7753 13.2996 34.1023 12.2717 33.0744C11.2438 32.0468 9.5708 32.0468 8.54289 33.0744C7.51533 34.1023 7.51533 35.7753 8.54289 36.8032C9.5708 37.8311 11.2438 37.8311 12.2717 36.8032Z" fill="#EB6034"/>
<path d="M2.01739 43.3288C5.4338 46.7452 12.4678 45.6682 20.1205 41.262C20.6145 36.9279 19.1657 32.5107 16.0006 29.3456C12.8358 26.1809 8.41796 24.7327 4.08385 25.2264C-0.322008 32.8791 -1.39901 39.9128 2.01739 43.3288ZM6.67869 31.2102C8.73519 29.1534 12.0798 29.1534 14.1363 31.2102C16.1928 33.2667 16.1928 36.6114 14.1363 38.6679C12.0798 40.7244 8.73519 40.7244 6.67869 38.6679C4.62184 36.6114 4.62184 33.2667 6.67869 31.2102Z" fill="#EB6034"/>
<path d="M39.2348 23.1851C34.7751 23.1731 30.3922 21.4685 27.1351 18.211C23.8777 14.9539 22.1731 10.5711 22.1617 6.11096C19.1402 8.12798 16.0788 10.6229 13.1516 13.5501C10.2244 16.4772 7.78167 19.4868 5.76465 22.5081C10.2251 22.5194 14.6076 24.224 17.8651 27.4811C21.1222 30.7385 22.8271 35.1217 22.8388 39.5812C25.86 37.5641 28.8689 35.1217 31.7961 32.1946C34.7229 29.2677 37.2178 26.206 39.2348 23.1851ZM26.2027 26.6012C24.1461 28.658 20.8015 28.658 18.745 26.6012C16.6885 24.5446 16.6885 21.2 18.745 19.1435C20.8015 17.087 24.1461 17.087 26.2027 19.1435C28.2592 21.2 28.2592 24.5446 26.2027 26.6012Z" fill="#EB6034"/>
</g>
<defs>
<clipPath id="clip0_770_2739">
<rect width="45" height="45" fill="white" transform="translate(0 0.346191)"/>
</clipPath>
</defs>
</svg>
