<svg width="24" height="25" viewBox="0 0 24 25" fill="none" xmlns="http://www.w3.org/2000/svg">
<g clip-path="url(#clip0_602_248)">
<path d="M19.0781 2.79968H4.92188C2.20789 2.79968 0 5.00757 0 7.72156V15.6409C0 18.3549 2.20789 20.5627 4.92188 20.5627H5.65228L7.36414 22.7346C7.49762 22.9037 7.70105 23.0024 7.91638 23.0024C8.13171 23.0024 8.33533 22.9037 8.46863 22.7346L10.1805 20.5627H19.0781C21.7921 20.5627 24 18.3549 24 15.6409V7.72156C24 5.00757 21.7921 2.79968 19.0781 2.79968V2.79968Z" fill="#6787F5"/>
<path d="M19.0781 2.79968H12V20.5627H19.0781C21.7921 20.5627 24 18.3549 24 15.6409V7.72156C24 5.00757 21.7921 2.79968 19.0781 2.79968Z" fill="#38478A"/>
<path d="M9.36377 21.5991L10.1806 20.5627L9.36377 21.5991Z" fill="white"/>
<path d="M24 8.57721H18.0881L22.4888 4.17645C21.6035 3.32446 20.4011 2.79968 19.0781 2.79968H17.8995L15.1051 5.59406V2.79968H8.89508V5.59406L6.10071 2.79968H4.92188C3.59894 2.79968 2.39648 3.32446 1.51117 4.17645L5.91193 8.57721H0V14.7872H5.91193L1.67633 19.0226L1.51208 19.1869C2.3974 20.0385 3.59949 20.5627 4.92188 20.5627H5.65228L5.85077 20.8145L8.81964 17.8455L8.77148 20.5627H15.1049V17.7781L17.8804 20.5627H19.0781C20.3948 20.5627 21.5923 20.0431 22.4764 19.1981L22.3109 19.0318L18.0804 14.7872H24V8.57721Z" fill="white"/>
<path d="M24 8.57721H18.0881L22.4888 4.17645C21.6035 3.32446 20.4011 2.79968 19.0781 2.79968H17.8995L15.1051 5.59406V2.79968H12V20.5627H15.1049V17.7781L17.8804 20.5627H19.0781C20.3948 20.5627 21.5923 20.0431 22.4764 19.1981L22.3109 19.0318L18.0804 14.7872H24V8.57721Z" fill="#C7D3ED"/>
<path d="M13.6987 9.98346V2.79968H10.3013V9.98346H0V13.381H10.3013L10.1805 20.5627H13.6987V13.381H24V9.98346H13.6987Z" fill="#FF337A"/>
<path d="M13.6987 9.98346V2.79968H12V20.5627H13.6987V13.381H24V9.98346H13.6987Z" fill="#D1005B"/>
<path d="M9.36359 9.04578V8.05151L4.16925 2.85718C3.6366 2.93921 3.13177 3.10712 2.66943 3.34607L8.36932 9.04578H9.36359Z" fill="#FF337A"/>
<path d="M21.3304 3.34607C20.868 3.10712 20.3632 2.93921 19.8306 2.85718L14.6362 8.05151V9.04578H15.6305L21.3304 3.34607Z" fill="#D1005B"/>
<path d="M2.6709 20.0171C3.13342 20.2559 3.63824 20.4236 4.17108 20.5056L9.36377 15.3127V14.3185H8.36951L2.6709 20.0171Z" fill="#FF337A"/>
<path d="M14.6362 14.3185V15.3157L19.8112 20.5082C20.3449 20.428 20.851 20.2621 21.3146 20.0246L15.6277 14.3185H14.6362Z" fill="#D1005B"/>
</g>
<defs>
<clipPath id="clip0_602_248">
<rect width="24" height="24" fill="white" transform="translate(0 0.877808)"/>
</clipPath>
</defs>
</svg>
