<svg width="15" height="12" viewBox="0 0 15 12" fill="none" xmlns="http://www.w3.org/2000/svg">
<path d="M4.49144 6.72448C4.8625 6.93651 5.15405 7.24131 5.36609 7.63888C5.60463 8.00995 5.7239 8.43402 5.7239 8.9111C5.7239 9.73274 5.4456 10.4219 4.88901 10.9785C4.35892 11.5351 3.70955 11.8134 2.94092 11.8134C2.2253 11.8134 1.61569 11.5748 1.11211 11.0977C0.635025 10.6206 0.396484 10.011 0.396484 9.26891C0.396484 8.87134 0.462746 8.50028 0.595268 8.15572C0.727791 7.78466 0.966332 7.29432 1.31089 6.68472L4.65047 0.721191H7.15515L4.49144 6.72448ZM12.0055 6.72448C12.3765 6.93651 12.6681 7.24131 12.8801 7.63888C13.1187 8.00995 13.2379 8.43402 13.2379 8.9111C13.2379 9.73274 12.9596 10.4219 12.403 10.9785C11.873 11.5351 11.2236 11.8134 10.455 11.8134C9.73934 11.8134 9.12974 11.5748 8.62615 11.0977C8.14907 10.6206 7.91053 10.011 7.91053 9.26891C7.91053 8.87134 7.97679 8.50028 8.10931 8.15572C8.24183 7.78466 8.48037 7.29432 8.82493 6.68472L12.1645 0.721191H14.6692L12.0055 6.72448Z" fill="#846951"/>
</svg>
