<svg width="15" height="12" viewBox="0 0 15 12" fill="none" xmlns="http://www.w3.org/2000/svg">
<path d="M10.1778 5.8097C9.80669 5.59767 9.51514 5.29287 9.3031 4.8953C9.06456 4.52423 8.94529 4.10016 8.94529 3.62308C8.94529 2.80144 9.22359 2.11232 9.78018 1.55572C10.3103 0.999127 10.9596 0.720829 11.7283 0.720829C12.4439 0.720829 13.0535 0.959371 13.5571 1.43645C14.0342 1.91353 14.2727 2.52314 14.2727 3.26527C14.2727 3.66284 14.2064 4.0339 14.0739 4.37846C13.9414 4.74952 13.7029 5.23986 13.3583 5.84946L10.0187 11.813L7.51404 11.813L10.1778 5.8097ZM2.66371 5.8097C2.29264 5.59767 2.00109 5.29286 1.78906 4.8953C1.55052 4.52423 1.43125 4.10016 1.43125 3.62308C1.43125 2.80143 1.70955 2.11232 2.26614 1.55572C2.79623 0.999126 3.44559 0.720828 4.21422 0.720828C4.92985 0.720828 5.53945 0.95937 6.04304 1.43645C6.52012 1.91353 6.75866 2.52314 6.75866 3.26527C6.75866 3.66284 6.6924 4.0339 6.55988 4.37846C6.42736 4.74952 6.18882 5.23986 5.84426 5.84946L2.50468 11.813L0 11.813L2.66371 5.8097Z" fill="#846951"/>
</svg>
