<svg width="64" height="18" viewBox="0 0 64 18" fill="none" xmlns="http://www.w3.org/2000/svg">
<path fill-rule="evenodd" clip-rule="evenodd" d="M59.1092 0H2.5856L0.39864 11.7319C-0.208922 14.9912 2.30218 18 5.62989 18H61.6346L63.9163 5.75984C64.4746 2.76484 62.1671 0 59.1092 0ZM53.2538 12.4283C53.7568 12.7623 54.4056 12.9294 55.2001 12.9294C56.0384 12.9294 56.731 12.7406 57.2777 12.3629C57.8244 11.9853 58.1597 11.4516 58.2836 10.7617C58.4076 10.0501 58.2436 9.46913 57.7916 9.0189C57.5875 8.82283 57.2923 8.64492 56.9059 8.48516C56.782 8.42706 56.556 8.33992 56.228 8.22374C55.7396 8.04219 55.4079 7.88606 55.2329 7.75535C55.0653 7.62464 55.0033 7.45762 55.0471 7.25429C55.1345 6.86942 55.4407 6.67698 55.9655 6.67698C56.5196 6.67698 56.9351 6.96019 57.2121 7.52661L58.7429 6.72055C58.5461 6.17592 58.218 5.75473 57.7588 5.457C57.2995 5.15201 56.7528 4.99951 56.1186 4.99951C55.4115 4.99951 54.7883 5.18105 54.2488 5.54414C53.7167 5.89997 53.3887 6.43734 53.2647 7.15626C53.1481 7.82434 53.2647 8.35082 53.6146 8.73569C53.9791 9.10604 54.5185 9.41104 55.2329 9.65067C55.7505 9.83222 56.0968 9.98472 56.2717 10.1082C56.4539 10.2316 56.5232 10.3986 56.4795 10.6092C56.3993 11.0377 56.0239 11.2519 55.3532 11.2519C54.5586 11.2519 54.0702 10.9106 53.888 10.228L52.2916 11.0449C52.4301 11.6331 52.7508 12.0943 53.2538 12.4283ZM11.6337 7.87517C11.5389 8.37623 11.3348 8.81557 11.0214 9.19318C10.7079 9.57079 10.3179 9.85037 9.85139 10.0319L10.9667 12.7769H9.19532L8.20029 10.2716H7.24899L6.81161 12.7769C5.89869 12.7769 5.20688 11.9561 5.36488 11.0603L6.40704 5.15201H9.35934C10.0883 5.15201 10.6824 5.42795 11.1417 5.97985C11.6009 6.52448 11.7649 7.15625 11.6337 7.87517ZM9.07504 6.7859H7.87226L7.52235 8.74658H8.83449C9.09691 8.74658 9.32289 8.65581 9.51242 8.47427C9.70924 8.28546 9.83317 8.04945 9.88419 7.76624C9.93522 7.48304 9.88419 7.25066 9.73111 7.06911C9.58532 6.88031 9.36663 6.7859 9.07504 6.7859ZM16.0441 12.9294C15.1183 12.9294 14.4076 12.6861 13.9119 12.1996C13.4162 11.7058 13.2376 11.0776 13.3761 10.3151L14.2946 5.15201H16.0441L15.1584 10.1626C15.0345 10.8743 15.3735 11.2301 16.1753 11.2301C16.9772 11.2301 17.4401 10.8743 17.564 10.1626L18.1463 6.86842C18.3218 5.87579 19.1874 5.15201 20.1992 5.15201L19.2807 10.3151C19.1276 11.1648 18.7632 11.8147 18.1873 12.2649C17.6187 12.7079 16.9043 12.9294 16.0441 12.9294ZM23.0928 12.7769H25.3234L29.052 5.15201H27.051L24.4814 10.7617L23.88 5.15201H22.054L23.0928 12.7769ZM35.7729 5.15201L35.4776 6.82948H32.4707L32.241 8.10392H34.9856L34.6904 9.73781H31.9567L31.7162 11.0994H34.7778L34.4826 12.7769H29.6714L31.0164 5.15201H35.7729ZM36.7818 12.7769H38.5313L39.2967 8.49605L41.4836 12.7769H42.7958L44.1407 5.15201H42.3912L41.6367 9.43282L39.4389 5.15201H38.1268L36.7818 12.7769ZM46.2174 5.15201H50.1937C51.0859 5.15201 51.7622 5.95402 51.6081 6.82948H49.6399L48.5902 12.7769H46.8407L47.8904 6.82948H45.9222L46.2174 5.15201Z" fill="white"/>
</svg>
