<svg width="49" height="49" viewBox="0 0 49 49" fill="none" xmlns="http://www.w3.org/2000/svg">
<g clip-path="url(#clip0_599_1870)">
<path d="M3.29059 22.4704H19.8673C19.9139 22.4704 19.9518 22.4324 19.9518 22.3858C19.9518 20.6537 18.5427 19.2446 16.8106 19.2446H3.29059C2.40128 19.2446 1.67773 19.9682 1.67773 20.8576C1.67773 21.747 2.40128 22.4704 3.29059 22.4704Z" fill="#846951"/>
<path d="M8.93648 30.8005C6.8436 30.8005 4.94003 31.603 3.57643 33.0602C2.33431 34.3875 1.6011 36.1723 1.48149 38.1346C1.46254 38.4455 1.70991 38.7082 2.02136 38.7082H16.7442C16.7442 34.274 13.3146 30.8005 8.93648 30.8005Z" fill="#846951"/>
<path d="M38.9639 25.0359L37.5527 18.3459C37.294 18.378 37.0311 18.3965 36.764 18.3965H31.2413C30.4682 19.5127 30.0145 20.8669 30.0145 22.3278V30.8666C30.0145 31.7391 29.3072 32.4465 28.4347 32.4465H22.3731C21.6733 32.4465 21.0568 31.9859 20.8582 31.3149L19.129 25.4716H5.07515C2.71623 26.928 1.00178 29.3272 0.457031 32.1439C2.32927 29.4722 5.37083 27.7995 8.93632 27.7995C14.9973 27.7995 19.7451 32.5912 19.7451 38.7084C19.7451 38.7207 19.7436 38.7325 19.7432 38.7447H33.2974C33.6853 35.8085 35.4745 33.3082 37.9699 31.941L38.9639 25.0359Z" fill="#846951"/>
<path d="M21.9531 12.0263C21.9531 12.8551 22.625 13.5269 23.4537 13.5269H26.8402V10.5259H23.4537C22.6249 10.5259 21.9531 11.1976 21.9531 12.0263Z" fill="#846951"/>
<path d="M40.1328 12.0921C40.1689 10.2033 38.5868 8.65723 36.6977 8.65723H30.4859C30.1302 8.65723 29.8418 8.9456 29.8418 9.30132V14.7514C29.8418 15.1072 30.1302 15.3955 30.4859 15.3955H36.7642C38.6031 15.3956 40.0978 13.9226 40.1328 12.0921Z" fill="#846951"/>
<path d="M47.7449 32.6055C47.8089 32.6528 47.8858 32.6789 47.9654 32.6789C48.1781 32.6789 48.3502 32.5004 48.3373 32.288C48.135 28.9497 45.3523 26.4791 41.9493 26.4791H41.788L41.1514 30.9021C41.5398 30.8515 41.9359 30.825 42.338 30.825C44.3604 30.825 46.2308 31.4871 47.7449 32.6055Z" fill="#846951"/>
<path d="M9.04058 46.0643C11.8355 46.0643 14.1911 44.1897 14.9229 41.6298H3.1582C3.89001 44.1896 6.24554 46.0643 9.04058 46.0643Z" fill="#846951"/>
<path d="M3.98689 11.8942H17.4449C18.2736 11.8942 18.9455 11.2223 18.9455 10.3936C18.9455 9.56493 18.2736 8.89307 17.4449 8.89307H3.98689C3.15819 8.89307 2.48633 9.56493 2.48633 10.3936C2.48633 11.2223 3.15819 11.8942 3.98689 11.8942Z" fill="#846951"/>
<path d="M8.97225 5.74527H22.5462C23.3749 5.74527 24.0468 5.07341 24.0468 4.24471C24.0468 3.416 23.3749 2.74414 22.5462 2.74414H8.97225C8.14354 2.74414 7.47168 3.416 7.47168 4.24471C7.47168 5.07341 8.14354 5.74527 8.97225 5.74527Z" fill="#846951"/>
<path d="M42.3379 33.8259C41.7475 33.8259 41.1772 33.9113 40.6369 34.0673C40.6369 34.0673 39.6938 34.3046 38.8764 34.8995C37.2717 36.0026 36.2188 37.8505 36.2188 39.945C36.2188 43.3244 38.9583 46.0641 42.3379 46.0641C45.7173 46.0641 48.457 43.3245 48.457 39.945C48.4569 36.5655 45.7173 33.8259 42.3379 33.8259ZM42.3379 41.4555C41.5036 41.4555 40.8274 40.7792 40.8274 39.9451C40.8274 39.1108 41.5036 38.4346 42.3379 38.4346C43.1721 38.4346 43.8484 39.1108 43.8484 39.9451C43.8484 40.7792 43.1721 41.4555 42.3379 41.4555Z" fill="#846951"/>
</g>
<defs>
<clipPath id="clip0_599_1870">
<rect width="48" height="48" fill="white" transform="translate(0.457031 0.404297)"/>
</clipPath>
</defs>
</svg>
