<svg width="45" height="46" viewBox="0 0 45 46" fill="none" xmlns="http://www.w3.org/2000/svg">
<g clip-path="url(#clip0_770_2746)">
<path d="M42.0139 19.1438C41.3849 14.8265 40.1218 11.6563 40.0686 11.5234L39.6827 10.5652L38.6599 10.7104C38.5185 10.7303 35.1412 11.2216 31.0879 12.8356C25.637 15.0061 21.5751 18.1983 19.3414 22.0672C17.1074 25.9358 16.3741 31.0496 17.2197 36.8556C17.6952 40.1189 18.5326 42.8916 18.9363 44.028L23.588 35.8057L21.799 29.1294L24.3457 28.4469L25.4523 32.5764L28.8615 26.6716L27.0724 19.9956L29.6195 19.3131L30.7257 23.4422L32.4303 20.49L34.7138 21.8084L30.3728 29.3275L34.5019 28.221L35.1845 30.7681L28.5082 32.5568L21.2201 45.346C22.406 45.1276 25.0825 44.3837 28.1463 43.1638C33.5973 40.9933 37.6592 37.8011 39.8928 33.9322C42.1261 30.0636 42.8598 24.9498 42.0139 19.1438Z" fill="#EB6034"/>
<path d="M7.34672 15.9822L8.02925 13.4354L12.1584 14.542L10.4538 11.5897L12.7372 10.2713L17.0786 17.7905L18.1851 13.6613L20.7319 14.3439L20.0744 16.7979C20.9214 15.9293 21.8601 15.1088 22.89 14.3415C23.8709 13.6112 24.9342 12.9273 26.0723 12.2935C25.992 12.1438 25.9109 11.9948 25.8265 11.8482C23.5928 7.97932 19.5309 4.78743 14.08 2.61694C10.0264 1.00297 6.64908 0.511674 6.50763 0.491418L5.48487 0.346191L5.09897 1.30441C5.04576 1.43728 3.78267 4.60787 3.1537 8.92517C2.30775 14.7311 3.04143 19.8446 5.2751 23.7135C7.43392 27.453 10.9338 29.9974 14.2455 31.6879C14.2637 30.7705 14.3231 29.8745 14.425 29.0035C14.5565 27.8818 14.7584 26.8 15.0286 25.7614L12.6198 25.1163L13.3024 22.5692L15.8491 23.2517C16.0277 22.8037 16.221 22.366 16.4287 21.9385L14.0227 17.7713L7.34672 15.9822Z" fill="#EB6034"/>
</g>
<defs>
<clipPath id="clip0_770_2746">
<rect width="45" height="45" fill="white" transform="translate(0 0.346191)"/>
</clipPath>
</defs>
</svg>
