<svg width="45" height="46" viewBox="0 0 45 46" fill="none" xmlns="http://www.w3.org/2000/svg">
<g clip-path="url(#clip0_770_2732)">
<path d="M21.1816 32.2167H13.2715C12.544 32.2167 11.9531 32.8166 11.9531 33.5553V36.2326C11.9531 38.4469 10.1788 40.2485 7.99805 40.2485C5.81726 40.2485 4.04297 38.4469 4.04297 36.2326V33.5553C4.04297 32.8166 3.45211 32.2167 2.72461 32.2167H0V45.6923H21.1816V32.2167Z" fill="#EB6034"/>
<path d="M0 29.5394H2.72461C4.9054 29.5394 6.67969 31.341 6.67969 33.5553V36.2326C6.67969 36.9713 7.27055 37.5712 7.99805 37.5712C8.72555 37.5712 9.31641 36.9713 9.31641 36.2326V33.5553C9.31641 31.341 11.0907 29.5394 13.2715 29.5394H21.1816V24.1848H0V29.5394Z" fill="#EB6034"/>
<path d="M35.6836 33.5553V36.2326C35.6836 38.4469 33.9093 40.2485 31.7285 40.2485C29.5477 40.2485 27.7734 38.4469 27.7734 36.2326V33.5553C27.7734 32.8166 27.1826 32.2167 26.4551 32.2167H23.8184V45.6923H45V32.2167H37.002C36.2745 32.2167 35.6836 32.8166 35.6836 33.5553Z" fill="#EB6034"/>
<path d="M23.8184 29.5394H26.4551C28.6359 29.5394 30.4102 31.341 30.4102 33.5553V36.2326C30.4102 36.9713 31.001 37.5712 31.7285 37.5712C32.456 37.5712 33.0469 36.9713 33.0469 36.2326V33.5553C33.0469 31.341 34.8212 29.5394 37.002 29.5394H45V24.1848H23.8184V29.5394Z" fill="#EB6034"/>
<path d="M33.0469 8.03186H25.1367C24.4092 8.03186 23.8184 8.63181 23.8184 9.3705V12.0478C23.8184 14.2621 22.0441 16.0637 19.8633 16.0637C17.6825 16.0637 15.9082 14.2621 15.9082 12.0478V9.3705C15.9082 8.63181 15.3173 8.03186 14.5898 8.03186H11.9531V21.5075H33.0469V8.03186Z" fill="#EB6034"/>
<path d="M33.0469 0H11.9531V5.35457H14.5898C16.7706 5.35457 18.5449 7.15616 18.5449 9.37049V12.0478C18.5449 12.7865 19.1358 13.3864 19.8633 13.3864C20.5908 13.3864 21.1816 12.7865 21.1816 12.0478V9.37049C21.1816 7.15616 22.9559 5.35457 25.1367 5.35457H33.0469V0Z" fill="#EB6034"/>
</g>
<defs>
<clipPath id="clip0_770_2732">
<rect width="45" height="45.6923" fill="white"/>
</clipPath>
</defs>
</svg>
