<svg width="45" height="41" viewBox="0 0 45 41" fill="none" xmlns="http://www.w3.org/2000/svg">
<path d="M1.46941 25.3396C1.11678 26.7974 0.741387 28.7326 0.635144 29.64V40.1978H14.4146C15.2494 40.0887 16.9569 39.7622 18.209 39.472C19.4612 39.1819 20.6564 38.8477 20.8651 38.7293C21.0791 38.6082 17.1909 38.511 11.9483 38.5065L2.65199 38.4989L2.63606 29.9615C2.62467 23.9666 2.54398 21.6125 2.36514 22.0565C2.22525 22.4043 1.82203 23.8816 1.46941 25.3396Z" fill="#EB6034"/>
<path d="M18.4015 34.5122L29.8452 34.578L28.1767 35.5266L26.5082 36.4752H15.7184H4.92863V26.3983V16.3214L5.87723 14.902L6.82583 13.4826L6.89186 23.9646L6.95788 34.4465L18.4015 34.5122Z" fill="#EB6034"/>
<path d="M23.2472 30.4042L34.8627 30.5306L33.9262 31.3528L32.9895 32.1749H21.2357H9.48192V21.3715V10.568L10.4305 9.59642L11.3791 8.6248L11.5056 19.4512L11.6321 30.2777L23.2472 30.4042Z" fill="#EB6034"/>
<path d="M16.0589 15.7325V26.1038L27.1259 26.1337C33.2129 26.1504 38.2784 26.1504 38.3826 26.1337C38.4868 26.1172 38.5723 26.1668 38.5723 26.2437C38.5723 26.3209 38.2592 26.7762 37.8767 27.2556L37.181 28.1275H25.4816H13.7822V17.4109V6.69446L14.7308 6.04284C15.2527 5.68465 15.7649 5.38464 15.8692 5.37629C15.9734 5.36794 16.0589 10.0282 16.0589 15.7325Z" fill="#EB6034"/>
<path d="M30.8601 22.0565C36.493 22.0565 41.1014 22.142 41.1009 22.2462C41.1004 22.3504 40.8745 22.806 40.5988 23.258L40.0974 24.0802H29.2166H18.3355V13.9714V3.86258L19.4106 3.39359L20.4857 2.92485L20.552 12.4905L20.6182 22.0565H30.8601Z" fill="#EB6034"/>
<path d="M33.9558 17.9492C38.8599 17.9856 42.8726 18.0541 42.8726 18.1012C42.8726 18.148 42.7477 18.5451 42.5949 18.9833L42.3171 19.7798H32.5997H22.8822L22.9487 10.8855L23.0153 1.99118L23.9006 1.69294L24.786 1.3947L24.9125 9.63867L25.039 17.8826L33.9558 17.9492Z" fill="#EB6034"/>
<path d="M29.4658 7.13183V13.7088H36.6751C40.6403 13.7088 43.8845 13.8085 43.8845 13.9301C43.8845 14.0518 43.8134 14.5071 43.7264 14.942L43.5683 15.7325H35.5052H27.4421V8.28862C27.4421 1.41215 27.4757 0.836161 27.8848 0.729159C28.1284 0.665666 28.5837 0.600402 28.8966 0.584213L29.4658 0.55487V7.13183Z" fill="#EB6034"/>
<path d="M34.019 4.98167V9.66143H39.0782H44.1374V10.6669V11.6725L38.0563 11.6155L31.9754 11.5586L31.922 5.93027L31.8689 0.30191H32.944H34.019V4.98167Z" fill="#EB6034"/>
<path d="M38.0181 0.516926C38.3393 0.607232 38.5953 0.76685 38.5872 0.87107C38.5792 0.975289 38.5723 2.08528 38.5723 3.33743V5.61407H41.2008H43.8291L43.9325 6.49943L44.0358 7.38479H40.1657H36.2957V3.84335C36.2957 0.332012 36.3005 0.302163 36.8648 0.327206C37.178 0.341118 37.6968 0.426366 38.0181 0.516926Z" fill="#EB6034"/>
<path d="M42.9313 1.65322C43.034 1.81436 43.1195 2.07921 43.1218 2.24161C43.1238 2.40426 43.1947 2.71717 43.2791 2.93725C43.4069 3.26989 43.2149 3.33743 42.1408 3.33743H40.849V2.17103V1.00438L41.7971 1.18221C42.3184 1.28011 42.8289 1.49209 42.9313 1.65322Z" fill="#EB6034"/>
</svg>
