<svg width="34" height="29" viewBox="0 0 34 29" fill="none" xmlns="http://www.w3.org/2000/svg">
<path d="M31.6928 9.77027H24.877L21.0537 1.01542C20.841 0.528304 20.2736 0.305699 19.7865 0.51855C19.2993 0.731272 19.0768 1.29872 19.2896 1.7859L22.7765 9.77034H10.5405L14.0274 1.7859C14.2401 1.29872 14.0177 0.731336 13.5305 0.51855C13.0434 0.305699 12.4759 0.528175 12.2633 1.01542L8.43995 9.77027H1.62416C0.732551 9.77027 0.0708578 10.5775 0.265926 11.4271L3.85513 27.0608C3.99764 27.6816 4.56193 28.1228 5.21336 28.1228H28.1036C28.7551 28.1228 29.3194 27.6816 29.4619 27.0608L33.0511 11.4271C33.2461 10.5775 32.5844 9.77027 31.6928 9.77027ZM8.62103 12.7223C8.49243 12.7223 8.36172 12.6964 8.23628 12.6416C7.74912 12.4289 7.52665 11.8615 7.73943 11.3743L8.46247 9.71855H10.563L9.50352 12.1447C9.3456 12.5065 8.99204 12.7223 8.62103 12.7223ZM11.8459 22.9892C11.8459 23.5208 11.415 23.9518 10.8834 23.9518C10.3519 23.9518 9.92093 23.5208 9.92093 22.9892V15.9306C9.92093 15.399 10.3519 14.968 10.8834 14.968C11.415 14.968 11.8459 15.399 11.8459 15.9306V22.9892ZM17.621 22.9892C17.621 23.5208 17.1901 23.9518 16.6585 23.9518C16.1269 23.9518 15.696 23.5208 15.696 22.9892V15.9306C15.696 15.399 16.1269 14.968 16.6585 14.968C17.1901 14.968 17.621 15.399 17.621 15.9306V22.9892ZM23.3961 22.9892C23.3961 23.5208 22.9651 23.9518 22.4336 23.9518C21.902 23.9518 21.471 23.5208 21.471 22.9892V15.9306C21.471 15.399 21.902 14.968 22.4336 14.968C22.9651 14.968 23.3961 15.399 23.3961 15.9306V22.9892ZM25.0806 12.6416C24.9553 12.6964 24.8246 12.7223 24.696 12.7223C24.325 12.7223 23.9714 12.5066 23.8134 12.1447L22.7539 9.71862H24.8545L25.5775 11.3743C25.7903 11.8615 25.5678 12.4289 25.0806 12.6416Z" fill="white"/>
</svg>
