<svg width="27" height="23" viewBox="0 0 27 23" fill="none" xmlns="http://www.w3.org/2000/svg">
<path d="M0.966582 11.0315L7.0151 13.289L9.35625 20.8181C9.50605 21.3003 10.0957 21.4785 10.4871 21.1585L13.8587 18.41C14.2121 18.122 14.7154 18.1077 15.0848 18.3758L21.1659 22.7908C21.5845 23.0951 22.1777 22.8657 22.2827 22.3597L26.7374 0.931773C26.852 0.379124 26.309 -0.0819136 25.7828 0.121611L0.959494 9.6977C0.346907 9.93395 0.352245 10.8012 0.966582 11.0315ZM8.97895 12.0872L20.8 4.80662C21.0125 4.67616 21.231 4.96342 21.0486 5.13265L11.2928 14.2011C10.9499 14.5203 10.7287 14.9475 10.666 15.4112L10.3337 17.874C10.2897 18.2028 9.82779 18.2354 9.73705 17.9172L8.45894 13.4262C8.31255 12.914 8.52588 12.3669 8.97895 12.0872Z" fill="white"/>
</svg>
