<svg width="31" height="31" viewBox="0 0 31 31" fill="none" xmlns="http://www.w3.org/2000/svg">
<path d="M15.6317 0.5H15.6242C7.35356 0.5 0.62793 7.2275 0.62793 15.5C0.62793 18.7812 1.68543 21.8225 3.48355 24.2919L1.61418 29.8644L7.3798 28.0213C9.75168 29.5925 12.5811 30.5 15.6317 30.5C23.9023 30.5 30.6279 23.7706 30.6279 15.5C30.6279 7.22938 23.9023 0.5 15.6317 0.5ZM24.3598 21.6819C23.9979 22.7038 22.5617 23.5512 21.4161 23.7987C20.6323 23.9656 19.6086 24.0988 16.1623 22.67C11.7542 20.8438 8.91543 16.3644 8.69418 16.0737C8.4823 15.7831 6.91293 13.7019 6.91293 11.5494C6.91293 9.39688 8.00605 8.34875 8.44668 7.89875C8.80855 7.52938 9.40668 7.36062 9.98043 7.36062C10.1661 7.36062 10.3329 7.37 10.4829 7.3775C10.9236 7.39625 11.1448 7.4225 11.4354 8.11813C11.7973 8.99 12.6786 11.1425 12.7836 11.3638C12.8904 11.585 12.9973 11.885 12.8473 12.1756C12.7067 12.4756 12.5829 12.6087 12.3617 12.8637C12.1404 13.1187 11.9304 13.3138 11.7092 13.5875C11.5067 13.8256 11.2779 14.0806 11.5329 14.5213C11.7879 14.9525 12.6692 16.3906 13.9667 17.5456C15.6411 19.0362 16.9986 19.5125 17.4842 19.715C17.8461 19.865 18.2773 19.8294 18.5417 19.5481C18.8773 19.1863 19.2917 18.5863 19.7136 17.9956C20.0136 17.5719 20.3923 17.5194 20.7898 17.6694C21.1948 17.81 23.3379 18.8694 23.7786 19.0887C24.2192 19.31 24.5098 19.415 24.6167 19.6006C24.7217 19.7863 24.7217 20.6581 24.3598 21.6819Z" fill="white"/>
</svg>
